<?xml version="1.0" standalone="no"?>
<!DOCTYPE svg PUBLIC "-//W3C//DTD SVG 20010904//EN"
 "http://www.w3.org/TR/2001/REC-SVG-20010904/DTD/svg10.dtd">
<svg version="1.0" xmlns="http://www.w3.org/2000/svg"
 width="600.000000pt" height="600.000000pt" viewBox="0 0 600.000000 600.000000"
 preserveAspectRatio="xMidYMid meet">

<g transform="translate(0.000000,600.000000) scale(0.100000,-0.100000)"
fill="#86e4eb" stroke="none">
<path d="M1824 3197 c-45 -10 -70 -43 -59 -77 3 -11 -1 -20 -10 -24 -9 -3 -14
-10 -10 -15 3 -5 0 -13 -6 -16 -6 -4 -8 -18 -5 -31 5 -17 2 -24 -9 -24 -8 0
-15 -5 -15 -11 0 -5 5 -7 10 -4 6 3 10 1 10 -4 0 -6 -8 -11 -17 -11 -15 0 -16
-2 -3 -10 12 -7 12 -12 2 -22 -9 -9 -12 -9 -13 2 0 8 -16 -23 -35 -69 -36 -85
-38 -116 -8 -104 14 5 16 2 12 -15 -5 -17 7 -32 27 -32 2 0 11 21 21 48 24 64
30 70 83 86 l46 15 -44 0 c-57 1 -50 7 28 25 l62 15 -2 -27 c-2 -15 -1 -32 3
-37 17 -28 27 -89 16 -96 -8 -5 -6 -12 5 -23 9 -9 19 -33 23 -52 6 -34 7 -35
24 -16 15 16 17 26 9 58 -12 53 -12 74 0 55 6 -9 8 18 6 71 -3 84 -3 85 23 95
24 10 25 11 6 12 -32 1 -50 36 -70 134 -21 103 -39 119 -110 104z m34 -164 c9
-41 9 -50 -5 -60 -15 -12 -15 -13 3 -14 18 0 18 -1 -1 -9 -11 -5 -29 -9 -40
-9 -17 -1 -17 1 -5 9 13 8 12 10 -2 10 -10 0 -18 2 -18 4 0 13 44 116 50 116
4 0 12 -21 18 -47z m-68 -5 c0 -19 -18 -44 -25 -36 -4 3 0 15 7 27 15 24 18
26 18 9z m-20 -68 c0 -5 -4 -10 -10 -10 -5 0 -10 5 -10 10 0 6 5 10 10 10 6 0
10 -4 10 -10z"/>
<path d="M3652 3193 c-24 -5 -47 -47 -38 -70 3 -7 -4 -23 -15 -34 -16 -16 -20
-29 -15 -50 4 -22 2 -29 -9 -29 -8 0 -15 -5 -15 -11 0 -5 5 -7 10 -4 6 3 10 1
10 -4 0 -6 -8 -11 -17 -12 -10 0 -13 -3 -6 -5 7 -3 9 -12 6 -20 -4 -10 -8 -12
-13 -5 -9 15 -74 -145 -66 -164 3 -8 11 -14 18 -13 7 2 12 -4 10 -13 -1 -9 4
-19 13 -23 17 -6 40 24 51 67 7 31 38 55 87 68 30 8 30 8 -10 6 -24 -1 -43 1
-43 5 0 5 3 8 8 8 4 1 33 7 66 15 l58 14 -5 -28 c-3 -16 -2 -32 3 -37 16 -16
29 -93 16 -98 -8 -3 -8 -7 0 -13 7 -4 18 -27 25 -51 12 -41 13 -42 30 -23 14
14 16 26 10 54 -5 19 -11 40 -15 46 -4 6 -3 11 3 11 5 0 11 -6 14 -12 2 -7 3
29 1 79 l-4 93 28 7 27 7 -32 8 c-18 5 -32 12 -31 16 1 4 -2 14 -5 22 -4 8
-16 53 -26 99 -11 46 -22 86 -25 88 -7 7 -79 12 -104 6z m56 -166 c8 -30 7
-40 -5 -52 -11 -12 -11 -15 -1 -15 10 0 9 -3 -2 -10 -8 -5 -24 -10 -35 -10
-17 0 -17 2 -5 10 13 8 12 10 -2 10 -23 0 -23 6 4 69 23 56 31 56 46 -2z m-68
1 c0 -19 -18 -43 -25 -36 -4 3 -2 16 5 27 12 24 20 27 20 9z"/>
<path d="M2111 3163 c-5 -10 -12 -74 -16 -143 -3 -69 -9 -134 -13 -145 -5 -17
-7 -16 -14 10 -4 19 -6 2 -4 -48 2 -43 -1 -80 -6 -83 -5 -3 -2 -14 7 -24 16
-17 19 -17 93 10 42 15 113 36 157 46 44 10 72 20 63 22 -26 5 -22 22 6 22 18
0 25 -7 30 -32 3 -17 2 -36 -4 -42 -6 -6 -4 -16 6 -27 15 -17 19 -17 78 5 33
13 104 33 156 46 52 13 87 26 78 28 -27 5 -21 20 10 24 22 2 30 -3 42 -27 11
-21 28 -34 60 -45 25 -8 48 -19 51 -24 7 -8 42 -5 87 9 20 7 22 4 23 -26 0
-28 2 -31 9 -14 8 18 9 17 9 -7 2 -63 45 -5 55 72 10 81 27 133 48 152 17 15
17 17 1 20 -10 3 2 8 25 12 56 10 70 -2 46 -39 -13 -20 -18 -48 -18 -99 -1
-68 0 -71 22 -69 12 2 22 -2 22 -7 0 -6 4 -10 10 -10 5 0 7 6 4 14 -3 8 -1 17
5 21 6 3 11 33 11 65 0 59 16 87 32 59 5 -8 23 -39 41 -69 18 -30 47 -65 66
-77 19 -13 28 -23 22 -23 -7 0 2 -12 20 -27 18 -16 37 -27 41 -26 4 2 8 -2 8
-7 0 -7 7 -7 21 0 15 9 18 15 9 25 -6 7 -9 17 -8 22 2 5 -9 22 -24 39 -56 62
-118 144 -118 157 0 7 16 21 35 30 19 9 42 31 51 49 l17 33 -25 -22 c-39 -36
-42 -27 -7 22 29 41 32 49 23 82 -19 79 -131 109 -229 61 -50 -24 -55 -33 -24
-43 17 -6 19 -9 8 -16 -10 -6 -8 -9 9 -9 12 0 22 -6 22 -12 0 -26 -23 -93 -34
-100 -16 -11 -28 -10 -21 1 9 15 -34 34 -49 22 -7 -6 -56 -13 -109 -17 -90 -6
-95 -8 -86 -25 5 -11 21 -19 37 -20 26 -1 26 -1 -5 -11 -40 -13 -42 -25 -7
-34 25 -6 25 -7 7 -28 -10 -12 -5 -9 10 7 16 16 31 26 34 23 11 -11 -93 -106
-116 -106 -11 0 -20 3 -19 8 2 4 -7 17 -19 29 -12 12 -25 33 -28 46 -15 60 47
174 116 211 34 18 35 18 77 -2 42 -20 42 -20 42 -1 0 11 5 17 10 14 18 -11 10
13 -12 40 -14 15 -38 28 -60 32 -37 5 -114 -4 -105 -13 3 -3 -20 -28 -49 -56
-30 -28 -54 -57 -54 -64 0 -7 -5 -14 -11 -16 -13 -4 -28 -75 -29 -132 0 -28
-4 -37 -14 -33 -18 7 -220 -18 -239 -30 -8 -5 -3 132 9 260 6 69 5 77 -10 71
-11 -4 -16 -1 -16 11 0 25 -23 13 -31 -17 -4 -14 -10 -85 -14 -157 -7 -120
-16 -159 -28 -113 -3 12 -5 10 -6 -7 -1 -15 -6 -21 -15 -18 -17 7 -220 -18
-237 -29 -15 -9 -15 27 -3 151 17 177 17 186 -1 179 -9 -4 -15 0 -15 10 0 21
-17 20 -29 -1z m882 -40 c-7 -2 -21 -2 -30 0 -10 3 -4 5 12 5 17 0 24 -2 18
-5z m419 -34 c-2 -13 -8 -29 -14 -36 -16 -19 -108 -76 -114 -70 -6 5 14 115
23 130 2 4 28 6 56 4 49 -3 52 -5 49 -28z m28 -14 c0 -8 -4 -15 -10 -15 -5 0
-10 7 -10 15 0 8 5 15 10 15 6 0 10 -7 10 -15z m-32 -45 c-7 -11 -16 -20 -20
-20 -5 0 -3 9 4 20 7 11 16 20 20 20 5 0 3 -9 -4 -20z m-410 -245 c-2 -1 -14
-8 -28 -15 -25 -13 -25 -13 -6 8 10 12 23 19 28 16 5 -3 8 -7 6 -9z m386 -21
c5 -14 4 -15 -9 -4 -17 14 -19 20 -6 20 5 0 12 -7 15 -16z m-457 -20 c-3 -3
-12 -4 -19 -1 -8 3 -5 6 6 6 11 1 17 -2 13 -5z"/>
<path d="M3961 3171 c-11 -7 -11 -9 0 -13 11 -4 12 -9 2 -29 -7 -13 -15 -39
-18 -56 -3 -18 -12 -62 -20 -97 -8 -36 -18 -104 -21 -153 -3 -48 -7 -93 -9
-100 -4 -11 15 -23 36 -23 23 0 40 54 49 156 17 184 23 194 54 92 10 -31 26
-64 36 -73 18 -16 19 -16 32 4 17 28 31 27 24 -1 -6 -21 -5 -21 3 -3 5 11 17
41 26 67 10 26 26 56 36 67 10 11 19 25 19 31 0 5 5 10 11 10 8 0 9 -19 4 -62
-8 -70 -23 -110 -26 -68 -1 29 -27 -101 -28 -143 -1 -17 3 -26 9 -22 13 8 24
-20 14 -36 -5 -9 -10 -7 -15 7 -6 15 -8 15 -8 3 -1 -9 5 -22 13 -28 11 -9 19
-7 39 13 21 21 26 38 32 113 4 48 9 97 11 108 2 11 5 53 8 93 3 40 8 77 11 81
7 13 -31 58 -55 64 -17 4 -28 -8 -65 -71 -25 -42 -46 -81 -49 -87 -6 -17 -34
28 -40 67 -10 63 -76 114 -115 89z m207 -177 c-24 -49 -44 -81 -46 -72 -3 15
48 127 71 156 24 30 15 -1 -25 -84z"/>
<path d="M4375 3172 c-6 -4 -11 -16 -12 -27 -3 -34 -10 -67 -26 -130 -17 -66
-37 -208 -37 -268 0 -51 25 -61 57 -21 18 23 23 41 23 86 0 67 20 208 29 208
7 0 30 -61 38 -102 3 -15 13 -34 23 -43 17 -16 19 -16 32 4 17 28 31 27 23 -1
-4 -17 -3 -19 3 -8 14 22 26 69 13 50 -16 -24 -24 -4 -12 32 16 48 74 145 78
131 2 -6 -10 -39 -27 -73 -17 -34 -29 -65 -26 -68 3 -3 6 -1 6 5 0 13 60 103
69 103 7 0 -7 -141 -16 -150 -2 -2 -8 1 -12 8 -5 8 -12 -16 -18 -60 -9 -60 -8
-75 3 -84 8 -6 14 -21 14 -34 0 -17 -4 -21 -17 -16 -15 5 -15 4 1 -9 17 -13
21 -12 42 10 23 25 28 49 39 195 3 36 7 79 10 95 15 95 14 120 -3 141 -9 12
-26 25 -38 28 -18 5 -28 -6 -69 -79 -26 -47 -52 -85 -57 -85 -6 0 2 20 16 45
32 54 27 61 -5 8 l-23 -37 -17 59 c-10 32 -24 64 -31 70 -17 16 -60 26 -73 17z"/>
<path d="M1415 3109 c-38 -34 -72 -69 -74 -78 -2 -9 -8 -21 -13 -28 -16 -19
-15 -153 1 -163 8 -4 12 -17 8 -29 -3 -12 3 -31 15 -46 25 -32 43 -33 22 0 -9
14 -12 25 -6 25 6 0 15 -6 19 -13 13 -21 56 -47 78 -47 16 0 17 2 5 10 -12 7
-8 10 15 10 31 0 75 20 46 20 -8 0 9 22 39 48 39 35 52 53 47 65 -6 15 -15 11
-63 -29 -55 -44 -59 -46 -103 -39 -25 4 -48 8 -50 10 -2 2 -5 32 -8 67 -5 59
-3 66 28 113 42 62 105 97 167 93 49 -4 53 8 17 42 -16 15 -40 24 -72 27 -47
4 -50 2 -118 -58z"/>
<path d="M4115 3064 c-9 -14 -14 -28 -12 -31 3 -3 13 9 22 26 19 38 14 41 -10
5z"/>
<path d="M4202 2990 c0 -14 2 -19 5 -12 2 6 2 18 0 25 -3 6 -5 1 -5 -13z"/>
<path d="M2072 2970 c0 -14 2 -19 5 -12 2 6 2 18 0 25 -3 6 -5 1 -5 -13z"/>
<path d="M2422 2965 c0 -16 2 -22 5 -12 2 9 2 23 0 30 -3 6 -5 -1 -5 -18z"/>
<path d="M4602 2960 c0 -19 2 -27 5 -17 2 9 2 25 0 35 -3 9 -5 1 -5 -18z"/>
<path d="M1530 2868 c-25 -22 -36 -36 -25 -30 19 10 84 72 74 72 -2 -1 -24
-19 -49 -42z"/>
<path d="M1564 2784 c-18 -14 -18 -15 4 -4 12 6 22 13 22 15 0 8 -5 6 -26 -11z"/>
</g>
</svg>
